<svg width="24" height="24" viewBox="0 0 24 24" fill="none" xmlns="http://www.w3.org/2000/svg">
<path d="M12 5C12.2652 5 12.5196 5.10536 12.7071 5.29289C12.8946 5.48043 13 5.73478 13 6C13 6.26522 12.8946 6.51957 12.7071 6.70711C12.5196 6.89464 12.2652 7 12 7H6C5.73478 7 5.48043 7.10536 5.29289 7.29289C5.10536 7.48043 5 7.73478 5 8V18C5 18.2652 5.10536 18.5196 5.29289 18.7071C5.48043 18.8946 5.73478 19 6 19H16C16.2652 19 16.5196 18.8946 16.7071 18.7071C16.8946 18.5196 17 18.2652 17 18V12C17 11.7348 17.1054 11.4804 17.2929 11.2929C17.4804 11.1054 17.7348 11 18 11C18.2652 11 18.5196 11.1054 18.7071 11.2929C18.8946 11.4804 19 11.7348 19 12V18C19 18.7956 18.6839 19.5587 18.1213 20.1213C17.5587 20.6839 16.7956 21 16 21H6C5.20435 21 4.44129 20.6839 3.87868 20.1213C3.31607 19.5587 3 18.7956 3 18V8C3 7.20435 3.31607 6.44129 3.87868 5.87868C4.44129 5.31607 5.20435 5 6 5H12ZM15 3H20L20.075 3.003L20.201 3.02L20.312 3.05L20.423 3.094L20.521 3.146L20.617 3.213L20.707 3.293C20.743 3.32833 20.7753 3.36567 20.804 3.405L20.875 3.515L20.929 3.629L20.964 3.734L20.994 3.882L21 4V9C21 9.26522 20.8946 9.51957 20.7071 9.70711C20.5196 9.89464 20.2652 10 20 10C19.7348 10 19.4804 9.89464 19.2929 9.70711C19.1054 9.51957 19 9.26522 19 9V6.414L11.707 13.707C11.5184 13.8892 11.2658 13.99 11.0036 13.9877C10.7414 13.9854 10.4906 13.8802 10.3052 13.6948C10.1198 13.5094 10.0146 13.2586 10.0123 12.9964C10.01 12.7342 10.1108 12.4816 10.293 12.293L17.584 5H15C14.7348 5 14.4804 4.89464 14.2929 4.70711C14.1054 4.51957 14 4.26522 14 4C14 3.73478 14.1054 3.48043 14.2929 3.29289C14.4804 3.10536 14.7348 3 15 3Z" fill="black"/>
</svg>
