<svg width="24" height="24" viewBox="0 0 24 24" fill="none" xmlns="http://www.w3.org/2000/svg">
<path d="M13 21C13 21.2652 12.8946 21.5196 12.7071 21.7071C12.5196 21.8946 12.2652 22 12 22C11.7348 22 11.4804 21.8946 11.2929 21.7071C11.1054 21.5196 11 21.2652 11 21V18C11 17.7348 11.1054 17.4804 11.2929 17.2929C11.4804 17.1054 11.7348 17 12 17C12.2652 17 12.5196 17.1054 12.7071 17.2929C12.8946 17.4804 13 17.7348 13 18V21ZM13 6C13 6.26522 12.8946 6.51957 12.7071 6.70711C12.5196 6.89464 12.2652 7 12 7C11.7348 7 11.4804 6.89464 11.2929 6.70711C11.1054 6.51957 11 6.26522 11 6V3C11 2.73478 11.1054 2.48043 11.2929 2.29289C11.4804 2.10536 11.7348 2 12 2C12.2652 2 12.5196 2.10536 12.7071 2.29289C12.8946 2.48043 13 2.73478 13 3V6ZM22 12C22 11.7348 21.8946 11.4804 21.7071 11.2929C21.5196 11.1054 21.2652 11 21 11H18C17.7348 11 17.4804 11.1054 17.2929 11.2929C17.1054 11.4804 17 11.7348 17 12C17 12.2652 17.1054 12.5196 17.2929 12.7071C17.4804 12.8946 17.7348 13 18 13H21C21.2652 13 21.5196 12.8946 21.7071 12.7071C21.8946 12.5196 22 12.2652 22 12ZM6 11C6.26522 11 6.51957 11.1054 6.70711 11.2929C6.89464 11.4804 7 11.7348 7 12C7 12.2652 6.89464 12.5196 6.70711 12.7071C6.51957 12.8946 6.26522 13 6 13H3C2.73478 13 2.48043 12.8946 2.29289 12.7071C2.10536 12.5196 2 12.2652 2 12C2 11.7348 2.10536 11.4804 2.29289 11.2929C2.48043 11.1054 2.73478 11 3 11H6ZM19.071 19.071C19.2585 18.8835 19.3638 18.6292 19.3638 18.364C19.3638 18.0988 19.2585 17.8445 19.071 17.657L16.95 15.536C16.7614 15.3538 16.5088 15.253 16.2466 15.2553C15.9844 15.2576 15.7336 15.3628 15.5482 15.5482C15.3628 15.7336 15.2576 15.9844 15.2553 16.2466C15.253 16.5088 15.3538 16.7614 15.536 16.95L17.656 19.071C17.7489 19.164 17.8592 19.2377 17.9806 19.2881C18.102 19.3384 18.2321 19.3643 18.3635 19.3643C18.4949 19.3643 18.625 19.3384 18.7464 19.2881C18.8678 19.2377 18.9781 19.164 19.071 19.071ZM8.464 7.051C8.56312 7.14236 8.64275 7.25283 8.6981 7.37575C8.75344 7.49867 8.78337 7.63152 8.78606 7.7663C8.78876 7.90108 8.76418 8.03502 8.71379 8.16006C8.66341 8.28509 8.58826 8.39865 8.49287 8.49391C8.39748 8.58917 8.28381 8.66415 8.1587 8.71436C8.03359 8.76457 7.89962 8.78896 7.76484 8.78607C7.63007 8.78319 7.49726 8.75308 7.37442 8.69756C7.25157 8.64204 7.14122 8.56225 7.05 8.463L4.93 6.344C4.74236 6.15649 4.63689 5.90212 4.6368 5.63685C4.6367 5.37158 4.74199 5.11714 4.9295 4.9295C5.11701 4.74186 5.37138 4.63639 5.63665 4.6363C5.90192 4.6362 6.15636 4.74149 6.344 4.929L8.464 7.051ZM19.071 4.929C18.8835 4.74153 18.6292 4.63621 18.364 4.63621C18.0988 4.63621 17.8445 4.74153 17.657 4.929L15.536 7.05C15.3538 7.2386 15.253 7.4912 15.2553 7.7534C15.2576 8.0156 15.3628 8.26641 15.5482 8.45182C15.7336 8.63723 15.9844 8.7424 16.2466 8.74467C16.5088 8.74695 16.7614 8.64616 16.95 8.464L19.071 6.344C19.164 6.25113 19.2377 6.14084 19.2881 6.01944C19.3384 5.89804 19.3643 5.76792 19.3643 5.6365C19.3643 5.50508 19.3384 5.37496 19.2881 5.25356C19.2377 5.13216 19.164 5.02187 19.071 4.929ZM7.051 15.536C7.14273 15.4383 7.25315 15.3601 7.37571 15.3059C7.49826 15.2517 7.63046 15.2228 7.76444 15.2207C7.89842 15.2186 8.03145 15.2435 8.15563 15.2938C8.27981 15.3441 8.39261 15.4189 8.48732 15.5137C8.58204 15.6085 8.65674 15.7213 8.70699 15.8455C8.75724 15.9698 8.78201 16.1028 8.77983 16.2368C8.77766 16.3708 8.74858 16.5029 8.69432 16.6255C8.64007 16.748 8.56174 16.8583 8.464 16.95L6.344 19.071C6.15649 19.2586 5.90212 19.3641 5.63685 19.3642C5.37158 19.3643 5.11714 19.259 4.9295 19.0715C4.74186 18.884 4.63639 18.6296 4.6363 18.3644C4.6362 18.0991 4.74149 17.8446 4.929 17.657L7.051 15.536Z" fill="black"/>
</svg>
