<svg width="16" height="16" viewBox="0 0 16 16" fill="none" xmlns="http://www.w3.org/2000/svg">
<path d="M7.99992 1.33331C11.6819 1.33331 14.6666 4.31798 14.6666 7.99998C14.6666 11.682 11.6819 14.6666 7.99992 14.6666C4.31792 14.6666 1.33325 11.682 1.33325 7.99998C1.33325 4.31798 4.31792 1.33331 7.99992 1.33331ZM10.3566 5.58731L7.05659 8.88731L5.64325 7.47331C5.58136 7.41137 5.50787 7.36223 5.42698 7.32869C5.34609 7.29515 5.25939 7.27788 5.17182 7.27784C4.99497 7.27778 4.82535 7.34797 4.70025 7.47298C4.57516 7.59799 4.50485 7.76756 4.50478 7.94441C4.50472 8.12126 4.57491 8.29089 4.69992 8.41598L6.53859 10.2546C6.60669 10.3228 6.68754 10.3768 6.77654 10.4137C6.86553 10.4506 6.96092 10.4696 7.05725 10.4696C7.15358 10.4696 7.24897 10.4506 7.33797 10.4137C7.42696 10.3768 7.50782 10.3228 7.57592 10.2546L11.2999 6.53065C11.425 6.40555 11.4953 6.23589 11.4953 6.05898C11.4953 5.88207 11.425 5.71241 11.2999 5.58731C11.1748 5.46222 11.0052 5.39194 10.8283 5.39194C10.6513 5.39194 10.4817 5.46222 10.3566 5.58731Z" fill="black"/>
</svg>
