<svg width="24" height="24" viewBox="0 0 24 24" fill="none" xmlns="http://www.w3.org/2000/svg">
<path fill-rule="evenodd" clip-rule="evenodd" d="M13 18C13.5304 18 14.0391 18.2107 14.4142 18.5858C14.7893 18.9609 15 19.4696 15 20C15 20.5304 14.7893 21.0391 14.4142 21.4142C14.0391 21.7893 13.5304 22 13 22C12.4696 22 11.9609 21.7893 11.5858 21.4142C11.2107 21.0391 11 20.5304 11 20C11 19.4696 11.2107 18.9609 11.5858 18.5858C11.9609 18.2107 12.4696 18 13 18ZM6.741 15C7.40404 15 8.03993 15.2634 8.50877 15.7322C8.97761 16.2011 9.241 16.837 9.241 17.5C9.241 18.163 8.97761 18.7989 8.50877 19.2678C8.03993 19.7366 7.40404 20 6.741 20C6.07796 20 5.44207 19.7366 4.97323 19.2678C4.50439 18.7989 4.241 18.163 4.241 17.5C4.241 16.837 4.50439 16.2011 4.97323 15.7322C5.44207 15.2634 6.07796 15 6.741 15ZM18.319 15.5C18.8494 15.5 19.3581 15.7107 19.7332 16.0858C20.1083 16.4609 20.319 16.9696 20.319 17.5C20.319 18.0304 20.1083 18.5391 19.7332 18.9142C19.3581 19.2893 18.8494 19.5 18.319 19.5C17.7886 19.5 17.2799 19.2893 16.9048 18.9142C16.5297 18.5391 16.319 18.0304 16.319 17.5C16.319 16.9696 16.5297 16.4609 16.9048 16.0858C17.2799 15.7107 17.7886 15.5 18.319 15.5ZM20.5 11.319C20.8978 11.319 21.2794 11.477 21.5607 11.7583C21.842 12.0396 22 12.4212 22 12.819C22 13.2168 21.842 13.5984 21.5607 13.8797C21.2794 14.161 20.8978 14.319 20.5 14.319C20.1022 14.319 19.7206 14.161 19.4393 13.8797C19.158 13.5984 19 13.2168 19 12.819C19 12.4212 19.158 12.0396 19.4393 11.7583C19.7206 11.477 20.1022 11.319 20.5 11.319ZM4.5 8C5.16304 8 5.79893 8.26339 6.26777 8.73223C6.73661 9.20107 7 9.83696 7 10.5C7 11.163 6.73661 11.7989 6.26777 12.2678C5.79893 12.7366 5.16304 13 4.5 13C3.83696 13 3.20107 12.7366 2.73223 12.2678C2.26339 11.7989 2 11.163 2 10.5C2 9.83696 2.26339 9.20107 2.73223 8.73223C3.20107 8.26339 3.83696 8 4.5 8ZM19.786 7.207C20.0512 7.207 20.3056 7.31236 20.4931 7.49989C20.6806 7.68743 20.786 7.94178 20.786 8.207C20.786 8.47222 20.6806 8.72657 20.4931 8.91411C20.3056 9.10164 20.0512 9.207 19.786 9.207C19.5208 9.207 19.2664 9.10164 19.0789 8.91411C18.8914 8.72657 18.786 8.47222 18.786 8.207C18.786 7.94178 18.8914 7.68743 19.0789 7.49989C19.2664 7.31236 19.5208 7.207 19.786 7.207ZM10 2C10.7956 2 11.5587 2.31607 12.1213 2.87868C12.6839 3.44129 13 4.20435 13 5C13 5.79565 12.6839 6.55871 12.1213 7.12132C11.5587 7.68393 10.7956 8 10 8C9.20435 8 8.44129 7.68393 7.87868 7.12132C7.31607 6.55871 7 5.79565 7 5C7 4.20435 7.31607 3.44129 7.87868 2.87868C8.44129 2.31607 9.20435 2 10 2ZM17.5 5C17.6326 5 17.7598 5.05268 17.8536 5.14645C17.9473 5.24021 18 5.36739 18 5.5C18 5.63261 17.9473 5.75979 17.8536 5.85355C17.7598 5.94732 17.6326 6 17.5 6C17.3674 6 17.2402 5.94732 17.1464 5.85355C17.0527 5.75979 17 5.63261 17 5.5C17 5.36739 17.0527 5.24021 17.1464 5.14645C17.2402 5.05268 17.3674 5 17.5 5Z" fill="black"/>
</svg>
